<?xml version="1.0" encoding="UTF-8"?><svg id="Layer_1" xmlns="http://www.w3.org/2000/svg" viewBox="0 0 320 320"><defs><style>.cls-1{fill:#231f20;}</style></defs><path class="cls-1" d="m177.36,113.05l-3.8-1.24L207.54,7.21l3.8,1.24-33.99,104.61Zm-1.9-.62-30.91,95.12,1.9.62l-3.8-1.24-33.99,104.61,3.8,1.24,33.99-104.61ZM255.66,31.73l-3.24-2.35-64.66,88.99,3.24,2.35L255.66,31.73Zm-66.27,87.82-58.78,80.9,1.62,1.18l-3.24-2.35-64.65,88.99,3.24,2.35,64.65-88.99Zm158.39-134.06l-2.35-3.24-89,64.66,2.35,3.24,89-64.66Zm-90.17,63.04-80.9,58.78,1.18,1.62l-2.35-3.24L29.38,252.43l2.35,3.24,88.99-64.66Zm192.06-78.55l-1.24-3.8-104.61,33.99,1.24,3.8,104.61-33.99Zm-105.23,32.09-95.13,30.91.62,1.9l-1.24-3.8L7.21,207.54l1.24,3.8,104.6-33.99Zm206.95-19.36h-110v4h110v-4Zm-110,2-100,0,0-2H0v4h110v-4Zm202.79,49.54l-104.6-33.99-1.24,3.8,104.6,33.99,1.24-3.8Zm-105.22-32.09-95.13-30.91.62-1.9L8.45,108.65l-1.24,3.8,104.6,33.99,1.24-3.8Zm177.57,109.78l-88.99-64.66-2.35,3.24,88.99,64.66,2.35-3.24Zm-90.17-63.04-80.91-58.78,1.18-1.62L31.73,64.34l-2.35,3.24,88.99,64.66,2.35-3.24Zm134.94,159.28l-64.01-88.11-3.24,2.35,64.01,88.11,3.24-2.35Zm-65.63-86.93-59.42-81.79,1.62-1.18L67.57,29.38l-3.24,2.35,64.66,88.99,3.24-2.35Zm79.12,193.18l-33.99-104.61-3.8,1.24,33.99,104.61,3.8-1.24Zm-64.9-199.73L112.46,7.21l-3.8,1.24,33.99,104.61,3.8-1.24Zm15.55,98.18h-4v110h4v-110Zm-2,0,0-100,2-110h-4v110h4V0Z"/></svg>