<?xml version="1.0" encoding="utf-8"?>
<!-- Generator: Adobe Illustrator 27.4.0, SVG Export Plug-In . SVG Version: 6.00 Build 0)  -->
<svg version="1.1" id="Layer_1" xmlns="http://www.w3.org/2000/svg" xmlns:xlink="http://www.w3.org/1999/xlink" x="0px" y="0px"
	 width="1000px" height="1000px" viewBox="0 0 1000 1000" style="enable-background:new 0 0 1000 1000;" xml:space="preserve">
<style type="text/css">
	.st0{fill:#231F20;}
</style>
<rect x="429.461" y="181.781" transform="matrix(0.309 -0.951 0.951 0.309 236.6424 701.782)" class="st0" width="343.667" height="12.5"/>
<rect x="226.681" y="805.855" transform="matrix(0.309 -0.951 0.951 0.309 -496.9897 940.1431)" class="st0" width="343.68" height="12.5"/>
<rect x="520.894" y="228.399" transform="matrix(0.5878 -0.809 0.809 0.5878 95.7053 657.1411)" class="st0" width="343.704" height="12.5"/>
<rect x="135.217" y="759.247" transform="matrix(0.5878 -0.809 0.809 0.5878 -492.7147 563.9309)" class="st0" width="343.692" height="12.5"/>
<rect x="593.466" y="300.984" transform="matrix(0.809 -0.5878 0.5878 0.809 -34.414 508.56)" class="st0" width="343.716" height="12.5"/>
<rect x="62.634" y="686.662" transform="matrix(0.809 -0.5878 0.5878 0.809 -362.5212 270.1874)" class="st0" width="343.695" height="12.5"/>
<rect x="640.104" y="392.434" transform="matrix(0.951 -0.309 0.309 0.951 -83.4641 270.4403)" class="st0" width="343.677" height="12.5"/>
<rect x="16.033" y="595.209" transform="matrix(0.951 -0.309 0.309 0.951 -176.6797 87.5003)" class="st0" width="343.661" height="12.5"/>
<rect x="656.136" y="493.821" class="st0" width="343.703" height="12.5"/>
<rect x="-0.025" y="493.821" class="st0" width="343.703" height="12.5"/>
<rect x="805.7" y="429.628" transform="matrix(0.309 -0.9511 0.9511 0.309 -10.9804 1187.804)" class="st0" width="12.5" height="343.661"/>
<rect x="181.614" y="226.851" transform="matrix(0.309 -0.9511 0.9511 0.309 -249.3575 454.1513)" class="st0" width="12.5" height="343.661"/>
<rect x="759.082" y="521.064" transform="matrix(0.5878 -0.809 0.809 0.5878 -245.0967 904.794)" class="st0" width="12.5" height="343.697"/>
<rect x="228.232" y="135.38" transform="matrix(0.5878 -0.809 0.809 0.5878 -151.8953 316.3421)" class="st0" width="12.5" height="343.695"/>
<rect x="687.502" y="596.732" transform="matrix(0.809 -0.5878 0.5878 0.809 -318.2612 554.2288)" class="st0" width="12.5" height="340.285"/>
<rect x="300.816" y="62.797" transform="matrix(0.809 -0.5878 0.5878 0.809 -79.2776 225.3017)" class="st0" width="12.5" height="343.7"/>
<rect x="595.043" y="640.265" transform="matrix(0.9511 -0.309 0.309 0.9511 -221.5228 225.5542)" class="st0" width="12.5" height="343.68"/>
<rect x="392.27" y="16.198" transform="matrix(0.9511 -0.309 0.309 0.9511 -38.6004 132.3528)" class="st0" width="12.5" height="343.671"/>
<rect x="493.657" y="656.297" class="st0" width="12.497" height="343.703"/>
<rect x="493.657" y="0.139" class="st0" width="12.497" height="343.703"/>
</svg>
