<?xml version="1.0" encoding="UTF-8"?><svg id="Layer_1" xmlns="http://www.w3.org/2000/svg" viewBox="0 0 320 320"><line x1="175.45" y1="112.44" x2="209.44" y2="7.83" style="fill:none; stroke:#231f20; stroke-miterlimit:10; stroke-width:4px;"/><line x1="110.56" y1="312.17" x2="144.55" y2="207.56" style="fill:none; stroke:#231f20; stroke-miterlimit:10; stroke-width:4px;"/><line x1="189.39" y1="119.55" x2="254.05" y2="30.56" style="fill:none; stroke:#231f20; stroke-miterlimit:10; stroke-width:4px;"/><line x1="65.95" y1="289.44" x2="130.61" y2="200.45" style="fill:none; stroke:#231f20; stroke-miterlimit:10; stroke-width:4px;"/><line x1="200.45" y1="130.61" x2="289.44" y2="65.95" style="fill:none; stroke:#231f20; stroke-miterlimit:10; stroke-width:4px;"/><line x1="30.56" y1="254.05" x2="119.55" y2="189.39" style="fill:none; stroke:#231f20; stroke-miterlimit:10; stroke-width:4px;"/><line x1="207.56" y1="144.55" x2="312.17" y2="110.56" style="fill:none; stroke:#231f20; stroke-miterlimit:10; stroke-width:4px;"/><line x1="7.83" y1="209.44" x2="112.43" y2="175.46" style="fill:none; stroke:#231f20; stroke-miterlimit:10; stroke-width:4px;"/><line x1="210" y1="160" x2="320" y2="160" style="fill:none; stroke:#231f20; stroke-miterlimit:10; stroke-width:4px;"/><line y1="160" x2="110" y2="160" style="fill:none; stroke:#231f20; stroke-miterlimit:10; stroke-width:4px;"/><line x1="207.57" y1="175.46" x2="312.17" y2="209.44" style="fill:none; stroke:#231f20; stroke-miterlimit:10; stroke-width:4px;"/><line x1="7.83" y1="110.56" x2="112.43" y2="144.54" style="fill:none; stroke:#231f20; stroke-miterlimit:10; stroke-width:4px;"/><line x1="200.45" y1="189.39" x2="289.44" y2="254.05" style="fill:none; stroke:#231f20; stroke-miterlimit:10; stroke-width:4px;"/><line x1="30.56" y1="65.95" x2="119.55" y2="130.61" style="fill:none; stroke:#231f20; stroke-miterlimit:10; stroke-width:4px;"/><line x1="190.03" y1="201.34" x2="254.05" y2="289.44" style="fill:none; stroke:#231f20; stroke-miterlimit:10; stroke-width:4px;"/><line x1="65.95" y1="30.56" x2="130.61" y2="119.55" style="fill:none; stroke:#231f20; stroke-miterlimit:10; stroke-width:4px;"/><line x1="175.45" y1="207.56" x2="209.44" y2="312.17" style="fill:none; stroke:#231f20; stroke-miterlimit:10; stroke-width:4px;"/><line x1="110.56" y1="7.83" x2="144.55" y2="112.44" style="fill:none; stroke:#231f20; stroke-miterlimit:10; stroke-width:4px;"/><line x1="160" y1="210" x2="160" y2="320" style="fill:none; stroke:#231f20; stroke-miterlimit:10; stroke-width:4px;"/><line x1="160" x2="160" y2="110" style="fill:none; stroke:#231f20; stroke-miterlimit:10; stroke-width:4px;"/></svg>